ffmpeg version 4.2.2 Copyright (c) 2000-2019 the FFmpeg developers
  built with gcc 9.2.1 (GCC) 20200122
  configuration: --enable-gpl --enable-version3 --enable-sdl2 --enable-fontconfig --enable-gnutls --enable-iconv --enable-libass --enable-libdav1d --enable-libbluray --enable-libfreetype --enable-libmp3lame --enable-libopencore-amrnb --enable-libopencore-amrwb --enable-libopenjpeg --enable-libopus --enable-libshine --enable-libsnappy --enable-libsoxr --enable-libtheora --enable-libtwolame --enable-libvpx --enable-libwavpack --enable-libwebp --enable-libx264 --enable-libx265 --enable-libxml2 --enable-libzimg --enable-lzma --enable-zlib --enable-gmp --enable-libvidstab --enable-libvorbis --enable-libvo-amrwbenc --enable-libmysofa --enable-libspeex --enable-libxvid --enable-libaom --enable-libmfx --enable-amf --enable-ffnvcodec --enable-cuvid --enable-d3d11va --enable-nvenc --enable-nvdec --enable-dxva2 --enable-avisynth --enable-libopenmpt
  libavutil      56. 31.100 / 56. 31.100
  libavcodec     58. 54.100 / 58. 54.100
  libavformat    58. 29.100 / 58. 29.100
  libavdevice    58.  8.100 / 58.  8.100
  libavfilter     7. 57.100 /  7. 57.100
  libswscale      5.  5.100 /  5.  5.100
  libswresample   3.  5.100 /  3.  5.100
  libpostproc    55.  5.100 / 55.  5.100
Guessed Channel Layout for Input Stream #0.0 : stereo
Input #0, s32le, from 'pipe:':
  Duration: N/A, bitrate: 2822 kb/s
    Stream #0:0: Audio: pcm_s32le, 44100 Hz, stereo, s32, 2822 kb/s
Stream mapping:
  Stream #0:0 -> #0:0 (pcm_s32le (native) -> mp3 (libmp3lame))
Output #0, mp3, to '3TEMP_MPY_wvf_snd.mp3':
  Metadata:
    TSSE            : Lavf58.29.100
    Stream #0:0: Audio: mp3 (libmp3lame), 44100 Hz, stereo, s32p
    Metadata:
      encoder         : Lavc58.54.100 libmp3lame
<<<<<<< HEAD
size=     256kB time=00:00:32.26 bitrate=  65.0kbits/s speed=63.5x    size=     768kB time=00:01:02.66 bitrate= 100.4kbits/s speed=62.1x    size=    1280kB time=00:01:25.26 bitrate= 123.0kbits/s speed=56.5x    size=    1792kB time=00:01:57.89 bitrate= 124.5kbits/s speed=58.6x    size=    2304kB time=00:02:33.70 bitrate= 122.8kbits/s speed=61.2x    size=    2816kB time=00:03:06.95 bitrate= 123.4kbits/s speed=62.1x    size=    3328kB time=00:03:32.97 bitrate= 128.0kbits/s speed=60.6x    size=    3451kB time=00:03:40.84 bitrate= 128.0kbits/s speed=59.9x    
video:0kB audio:3451kB subtitle:0kB other streams:0kB global headers:0kB muxing overhead: 0.007159%
=======
size=     512kB time=00:00:38.27 bitrate= 109.6kbits/s speed=76.5x    size=    1024kB time=00:01:19.04 bitrate= 106.1kbits/s speed=  79x    size=    1792kB time=00:02:00.94 bitrate= 121.4kbits/s speed=80.6x    size=    2304kB time=00:02:37.75 bitrate= 119.6kbits/s speed=78.8x    size=    2816kB time=00:03:12.88 bitrate= 119.6kbits/s speed=77.1x    size=    3584kB time=00:03:53.74 bitrate= 125.6kbits/s speed=77.9x    size=    3768kB time=00:04:01.08 bitrate= 128.0kbits/s speed=77.9x    
video:0kB audio:3767kB subtitle:0kB other streams:0kB global headers:0kB muxing overhead: 0.006558%
>>>>>>> c38fc6a97711231f0f8e78c3ab9e0894b8f0b54c
